<svg xmlns="http://www.w3.org/2000/svg" xmlns:xlink="http://www.w3.org/1999/xlink" width="1080" zoomAndPan="magnify" viewBox="0 0 810 809.999993" height="1080" preserveAspectRatio="xMidYMid meet" version="1.0"><defs><clipPath id="a23b75a807"><path d="M 1 123.523438 L 810 123.523438 L 810 686.773438 L 1 686.773438 Z M 1 123.523438 " clip-rule="nonzero"/></clipPath></defs><g clip-path="url(#a23b75a807)"><path fill="#666666" d="M 19.328125 123.871094 C 18.746094 123.863281 18.167969 123.882812 17.589844 123.929688 C 17.011719 123.980469 16.433594 124.058594 15.863281 124.164062 C 15.292969 124.269531 14.730469 124.40625 14.171875 124.566406 C 13.613281 124.730469 13.066406 124.917969 12.527344 125.136719 C 11.988281 125.351562 11.460938 125.59375 10.945312 125.863281 C 10.433594 126.132812 9.929688 126.425781 9.445312 126.742188 C 8.960938 127.0625 8.492188 127.402344 8.039062 127.769531 C 7.585938 128.132812 7.15625 128.519531 6.742188 128.925781 C 6.328125 129.335938 5.9375 129.761719 5.566406 130.207031 C 5.195312 130.65625 4.84375 131.117188 4.519531 131.601562 C 4.195312 132.082031 3.894531 132.578125 3.617188 133.089844 C 3.34375 133.597656 3.09375 134.121094 2.867188 134.65625 C 2.644531 135.195312 2.445312 135.738281 2.277344 136.292969 C 2.105469 136.851562 1.964844 137.414062 1.851562 137.980469 C 1.734375 138.550781 1.648438 139.125 1.59375 139.703125 C 1.535156 140.28125 1.507812 140.859375 1.507812 141.441406 C 1.507812 142.019531 1.535156 142.601562 1.59375 143.179688 C 1.648438 143.757812 1.734375 144.328125 1.851562 144.898438 C 1.964844 145.46875 2.105469 146.03125 2.277344 146.585938 C 2.445312 147.140625 2.644531 147.6875 2.867188 148.222656 C 3.09375 148.757812 3.34375 149.28125 3.617188 149.792969 C 3.894531 150.304688 4.195312 150.800781 4.519531 151.28125 C 4.84375 151.761719 5.195312 152.226562 5.566406 152.671875 C 5.9375 153.117188 6.328125 153.546875 6.742188 153.953125 C 7.15625 154.359375 7.585938 154.746094 8.039062 155.113281 C 8.492188 155.476562 8.960938 155.820312 9.445312 156.136719 C 9.929688 156.453125 10.433594 156.75 10.945312 157.015625 C 11.460938 157.285156 11.988281 157.527344 12.527344 157.746094 C 13.066406 157.960938 13.613281 158.152344 14.171875 158.3125 C 14.730469 158.476562 15.292969 158.609375 15.863281 158.714844 C 16.433594 158.820312 17.011719 158.898438 17.589844 158.949219 C 18.167969 159 18.746094 159.019531 19.328125 159.011719 L 792.429688 159.011719 C 793.011719 159.019531 793.589844 159 794.167969 158.949219 C 794.746094 158.898438 795.320312 158.820312 795.890625 158.714844 C 796.464844 158.609375 797.027344 158.476562 797.585938 158.3125 C 798.144531 158.152344 798.691406 157.960938 799.230469 157.746094 C 799.769531 157.527344 800.296875 157.285156 800.808594 157.015625 C 801.324219 156.75 801.824219 156.453125 802.3125 156.136719 C 802.796875 155.820312 803.265625 155.476562 803.71875 155.113281 C 804.167969 154.746094 804.601562 154.359375 805.015625 153.953125 C 805.429688 153.546875 805.820312 153.117188 806.191406 152.671875 C 806.5625 152.226562 806.910156 151.761719 807.238281 151.28125 C 807.5625 150.800781 807.863281 150.304688 808.136719 149.792969 C 808.414062 149.28125 808.664062 148.757812 808.890625 148.222656 C 809.113281 147.6875 809.308594 147.140625 809.480469 146.585938 C 809.648438 146.03125 809.792969 145.46875 809.90625 144.898438 C 810.019531 144.328125 810.105469 143.757812 810.164062 143.179688 C 810.222656 142.601562 810.25 142.019531 810.25 141.441406 C 810.25 140.859375 810.222656 140.28125 810.164062 139.703125 C 810.105469 139.125 810.019531 138.550781 809.90625 137.980469 C 809.792969 137.414062 809.648438 136.851562 809.480469 136.292969 C 809.308594 135.738281 809.113281 135.195312 808.890625 134.65625 C 808.664062 134.121094 808.414062 133.597656 808.140625 133.089844 C 807.863281 132.578125 807.5625 132.082031 807.238281 131.601562 C 806.910156 131.117188 806.5625 130.65625 806.191406 130.207031 C 805.820312 129.761719 805.429688 129.335938 805.015625 128.925781 C 804.601562 128.519531 804.167969 128.132812 803.71875 127.769531 C 803.265625 127.402344 802.796875 127.0625 802.3125 126.742188 C 801.824219 126.425781 801.324219 126.132812 800.808594 125.863281 C 800.296875 125.59375 799.769531 125.351562 799.230469 125.136719 C 798.691406 124.917969 798.144531 124.730469 797.585938 124.566406 C 797.027344 124.40625 796.464844 124.269531 795.890625 124.164062 C 795.320312 124.058594 794.746094 123.980469 794.167969 123.929688 C 793.589844 123.882812 793.011719 123.863281 792.429688 123.871094 Z M 19.328125 387.425781 C 18.746094 387.417969 18.167969 387.4375 17.589844 387.488281 C 17.011719 387.539062 16.433594 387.617188 15.863281 387.722656 C 15.292969 387.828125 14.730469 387.960938 14.171875 388.125 C 13.613281 388.285156 13.066406 388.476562 12.527344 388.691406 C 11.988281 388.910156 11.460938 389.152344 10.945312 389.421875 C 10.433594 389.6875 9.929688 389.984375 9.445312 390.300781 C 8.960938 390.621094 8.492188 390.960938 8.039062 391.324219 C 7.585938 391.691406 7.15625 392.078125 6.742188 392.484375 C 6.328125 392.890625 5.9375 393.320312 5.566406 393.765625 C 5.195312 394.210938 4.84375 394.675781 4.519531 395.15625 C 4.195312 395.640625 3.894531 396.136719 3.617188 396.644531 C 3.34375 397.15625 3.09375 397.679688 2.867188 398.214844 C 2.644531 398.75 2.445312 399.296875 2.277344 399.851562 C 2.105469 400.40625 1.964844 400.96875 1.851562 401.539062 C 1.734375 402.109375 1.648438 402.683594 1.59375 403.261719 C 1.535156 403.835938 1.507812 404.417969 1.507812 404.996094 C 1.507812 405.578125 1.535156 406.15625 1.59375 406.734375 C 1.648438 407.3125 1.734375 407.886719 1.851562 408.457031 C 1.964844 409.027344 2.105469 409.589844 2.277344 410.144531 C 2.445312 410.699219 2.644531 411.242188 2.867188 411.78125 C 3.09375 412.316406 3.34375 412.839844 3.617188 413.351562 C 3.894531 413.859375 4.195312 414.355469 4.519531 414.835938 C 4.84375 415.320312 5.195312 415.78125 5.566406 416.230469 C 5.9375 416.675781 6.328125 417.101562 6.742188 417.511719 C 7.15625 417.917969 7.585938 418.304688 8.039062 418.667969 C 8.492188 419.035156 8.960938 419.375 9.445312 419.695312 C 9.929688 420.011719 10.433594 420.304688 10.945312 420.574219 C 11.460938 420.84375 11.988281 421.085938 12.527344 421.304688 C 13.066406 421.519531 13.613281 421.707031 14.171875 421.871094 C 14.730469 422.03125 15.292969 422.167969 15.863281 422.273438 C 16.433594 422.378906 17.011719 422.457031 17.589844 422.507812 C 18.167969 422.554688 18.746094 422.578125 19.328125 422.566406 L 792.429688 422.566406 C 793.011719 422.578125 793.589844 422.554688 794.167969 422.507812 C 794.746094 422.457031 795.320312 422.378906 795.890625 422.273438 C 796.464844 422.167969 797.027344 422.03125 797.585938 421.871094 C 798.144531 421.707031 798.691406 421.519531 799.230469 421.300781 C 799.769531 421.085938 800.296875 420.84375 800.808594 420.574219 C 801.324219 420.304688 801.824219 420.011719 802.3125 419.695312 C 802.796875 419.375 803.265625 419.035156 803.71875 418.667969 C 804.167969 418.304688 804.601562 417.917969 805.015625 417.511719 C 805.429688 417.101562 805.820312 416.675781 806.191406 416.230469 C 806.5625 415.78125 806.910156 415.320312 807.238281 414.835938 C 807.5625 414.355469 807.863281 413.859375 808.136719 413.347656 C 808.414062 412.839844 808.664062 412.316406 808.890625 411.78125 C 809.113281 411.242188 809.308594 410.699219 809.480469 410.144531 C 809.648438 409.589844 809.792969 409.027344 809.90625 408.457031 C 810.019531 407.886719 810.105469 407.3125 810.164062 406.734375 C 810.222656 406.15625 810.25 405.578125 810.25 404.996094 C 810.25 404.417969 810.222656 403.835938 810.164062 403.261719 C 810.105469 402.683594 810.019531 402.109375 809.90625 401.539062 C 809.792969 400.96875 809.648438 400.40625 809.480469 399.851562 C 809.308594 399.296875 809.113281 398.75 808.890625 398.214844 C 808.664062 397.679688 808.414062 397.15625 808.140625 396.644531 C 807.863281 396.136719 807.5625 395.640625 807.238281 395.15625 C 806.910156 394.675781 806.5625 394.210938 806.191406 393.765625 C 805.820312 393.320312 805.429688 392.890625 805.015625 392.484375 C 804.601562 392.078125 804.167969 391.691406 803.71875 391.324219 C 803.265625 390.960938 802.796875 390.621094 802.3125 390.300781 C 801.824219 389.984375 801.324219 389.6875 800.808594 389.421875 C 800.296875 389.152344 799.769531 388.910156 799.230469 388.691406 C 798.691406 388.476562 798.144531 388.285156 797.585938 388.125 C 797.027344 387.960938 796.464844 387.828125 795.890625 387.722656 C 795.320312 387.617188 794.746094 387.539062 794.167969 387.488281 C 793.589844 387.441406 793.011719 387.417969 792.429688 387.425781 Z M 19.328125 650.984375 C 18.746094 650.976562 18.167969 650.996094 17.589844 651.046875 C 17.011719 651.09375 16.433594 651.171875 15.863281 651.28125 C 15.292969 651.386719 14.730469 651.519531 14.171875 651.683594 C 13.613281 651.84375 13.066406 652.035156 12.527344 652.25 C 11.988281 652.46875 11.460938 652.710938 10.945312 652.976562 C 10.433594 653.246094 9.933594 653.539062 9.445312 653.859375 C 8.960938 654.175781 8.492188 654.519531 8.039062 654.882812 C 7.589844 655.25 7.15625 655.636719 6.742188 656.042969 C 6.328125 656.449219 5.9375 656.878906 5.566406 657.324219 C 5.195312 657.769531 4.847656 658.234375 4.519531 658.714844 C 4.195312 659.195312 3.894531 659.691406 3.621094 660.203125 C 3.34375 660.714844 3.09375 661.238281 2.871094 661.773438 C 2.644531 662.308594 2.449219 662.855469 2.277344 663.410156 C 2.109375 663.964844 1.964844 664.527344 1.851562 665.097656 C 1.738281 665.664062 1.652344 666.238281 1.59375 666.816406 C 1.535156 667.394531 1.507812 667.972656 1.507812 668.554688 C 1.507812 669.136719 1.535156 669.714844 1.59375 670.292969 C 1.652344 670.871094 1.738281 671.445312 1.851562 672.011719 C 1.964844 672.582031 2.109375 673.144531 2.277344 673.699219 C 2.449219 674.253906 2.644531 674.800781 2.871094 675.335938 C 3.09375 675.871094 3.34375 676.394531 3.621094 676.90625 C 3.894531 677.417969 4.195312 677.914062 4.519531 678.394531 C 4.847656 678.875 5.195312 679.339844 5.566406 679.785156 C 5.9375 680.234375 6.328125 680.660156 6.742188 681.066406 C 7.15625 681.476562 7.589844 681.863281 8.039062 682.226562 C 8.492188 682.589844 8.960938 682.933594 9.445312 683.25 C 9.933594 683.570312 10.433594 683.863281 10.945312 684.132812 C 11.460938 684.402344 11.988281 684.644531 12.527344 684.859375 C 13.066406 685.078125 13.613281 685.265625 14.171875 685.429688 C 14.730469 685.589844 15.292969 685.722656 15.863281 685.832031 C 16.433594 685.9375 17.011719 686.015625 17.589844 686.0625 C 18.167969 686.113281 18.746094 686.132812 19.328125 686.125 L 792.429688 686.125 C 793.011719 686.132812 793.589844 686.113281 794.167969 686.0625 C 794.746094 686.015625 795.320312 685.9375 795.890625 685.832031 C 796.464844 685.722656 797.027344 685.589844 797.585938 685.429688 C 798.144531 685.265625 798.691406 685.078125 799.230469 684.859375 C 799.769531 684.644531 800.296875 684.402344 800.808594 684.132812 C 801.324219 683.863281 801.824219 683.570312 802.308594 683.25 C 802.796875 682.933594 803.265625 682.589844 803.714844 682.226562 C 804.167969 681.863281 804.601562 681.476562 805.015625 681.066406 C 805.429688 680.660156 805.820312 680.234375 806.191406 679.785156 C 806.5625 679.339844 806.910156 678.875 807.234375 678.394531 C 807.5625 677.914062 807.863281 677.417969 808.136719 676.90625 C 808.414062 676.394531 808.664062 675.871094 808.886719 675.335938 C 809.113281 674.800781 809.308594 674.253906 809.480469 673.699219 C 809.648438 673.144531 809.792969 672.582031 809.90625 672.011719 C 810.019531 671.445312 810.105469 670.871094 810.164062 670.292969 C 810.21875 669.714844 810.25 669.136719 810.25 668.554688 C 810.25 667.972656 810.21875 667.394531 810.164062 666.816406 C 810.105469 666.238281 810.019531 665.664062 809.90625 665.097656 C 809.792969 664.527344 809.648438 663.964844 809.480469 663.410156 C 809.308594 662.855469 809.113281 662.308594 808.886719 661.773438 C 808.664062 661.238281 808.414062 660.714844 808.136719 660.203125 C 807.863281 659.691406 807.5625 659.195312 807.234375 658.714844 C 806.910156 658.234375 806.5625 657.769531 806.191406 657.324219 C 805.820312 656.878906 805.429688 656.449219 805.015625 656.042969 C 804.601562 655.632812 804.167969 655.25 803.714844 654.882812 C 803.265625 654.519531 802.796875 654.175781 802.308594 653.859375 C 801.824219 653.539062 801.324219 653.246094 800.808594 652.976562 C 800.296875 652.710938 799.769531 652.46875 799.230469 652.25 C 798.691406 652.035156 798.144531 651.84375 797.585938 651.683594 C 797.027344 651.519531 796.464844 651.386719 795.890625 651.28125 C 795.320312 651.171875 794.746094 651.09375 794.167969 651.046875 C 793.589844 650.996094 793.011719 650.976562 792.429688 650.984375 Z M 19.328125 650.984375 " fill-opacity="1" fill-rule="nonzero"/><path fill="#666666" d="M 19.328125 123.871094 C 18.746094 123.863281 18.167969 123.882812 17.589844 123.929688 C 17.011719 123.980469 16.433594 124.058594 15.863281 124.164062 C 15.292969 124.269531 14.730469 124.40625 14.171875 124.566406 C 13.613281 124.730469 13.066406 124.917969 12.527344 125.136719 C 11.988281 125.351562 11.460938 125.59375 10.945312 125.863281 C 10.433594 126.132812 9.929688 126.425781 9.445312 126.742188 C 8.960938 127.0625 8.492188 127.402344 8.039062 127.769531 C 7.585938 128.132812 7.15625 128.519531 6.742188 128.925781 C 6.328125 129.335938 5.9375 129.761719 5.566406 130.207031 C 5.195312 130.65625 4.84375 131.117188 4.519531 131.601562 C 4.195312 132.082031 3.894531 132.578125 3.617188 133.089844 C 3.34375 133.597656 3.09375 134.121094 2.867188 134.65625 C 2.644531 135.195312 2.445312 135.738281 2.277344 136.292969 C 2.105469 136.851562 1.964844 137.414062 1.851562 137.980469 C 1.734375 138.550781 1.648438 139.125 1.59375 139.703125 C 1.535156 140.28125 1.507812 140.859375 1.507812 141.441406 C 1.507812 142.019531 1.535156 142.601562 1.59375 143.179688 C 1.648438 143.757812 1.734375 144.328125 1.851562 144.898438 C 1.964844 145.46875 2.105469 146.03125 2.277344 146.585938 C 2.445312 147.140625 2.644531 147.6875 2.867188 148.222656 C 3.09375 148.757812 3.34375 149.28125 3.617188 149.792969 C 3.894531 150.304688 4.195312 150.800781 4.519531 151.28125 C 4.84375 151.761719 5.195312 152.226562 5.566406 152.671875 C 5.9375 153.117188 6.328125 153.546875 6.742188 153.953125 C 7.15625 154.359375 7.585938 154.746094 8.039062 155.113281 C 8.492188 155.476562 8.960938 155.820312 9.445312 156.136719 C 9.929688 156.453125 10.433594 156.75 10.945312 157.015625 C 11.460938 157.285156 11.988281 157.527344 12.527344 157.746094 C 13.066406 157.960938 13.613281 158.152344 14.171875 158.3125 C 14.730469 158.476562 15.292969 158.609375 15.863281 158.714844 C 16.433594 158.820312 17.011719 158.898438 17.589844 158.949219 C 18.167969 159 18.746094 159.019531 19.328125 159.011719 L 792.429688 159.011719 C 793.011719 159.019531 793.589844 159 794.167969 158.949219 C 794.746094 158.898438 795.320312 158.820312 795.890625 158.714844 C 796.464844 158.609375 797.027344 158.476562 797.585938 158.3125 C 798.144531 158.152344 798.691406 157.960938 799.230469 157.746094 C 799.769531 157.527344 800.296875 157.285156 800.808594 157.015625 C 801.324219 156.75 801.824219 156.453125 802.3125 156.136719 C 802.796875 155.820312 803.265625 155.476562 803.71875 155.113281 C 804.167969 154.746094 804.601562 154.359375 805.015625 153.953125 C 805.429688 153.546875 805.820312 153.117188 806.191406 152.671875 C 806.5625 152.226562 806.910156 151.761719 807.238281 151.28125 C 807.5625 150.800781 807.863281 150.304688 808.136719 149.792969 C 808.414062 149.28125 808.664062 148.757812 808.890625 148.222656 C 809.113281 147.6875 809.308594 147.140625 809.480469 146.585938 C 809.648438 146.03125 809.792969 145.46875 809.90625 144.898438 C 810.019531 144.328125 810.105469 143.757812 810.164062 143.179688 C 810.222656 142.601562 810.25 142.019531 810.25 141.441406 C 810.25 140.859375 810.222656 140.28125 810.164062 139.703125 C 810.105469 139.125 810.019531 138.550781 809.90625 137.980469 C 809.792969 137.414062 809.648438 136.851562 809.480469 136.292969 C 809.308594 135.738281 809.113281 135.195312 808.890625 134.65625 C 808.664062 134.121094 808.414062 133.597656 808.140625 133.089844 C 807.863281 132.578125 807.5625 132.082031 807.238281 131.601562 C 806.910156 131.117188 806.5625 130.65625 806.191406 130.207031 C 805.820312 129.761719 805.429688 129.335938 805.015625 128.925781 C 804.601562 128.519531 804.167969 128.132812 803.71875 127.769531 C 803.265625 127.402344 802.796875 127.0625 802.3125 126.742188 C 801.824219 126.425781 801.324219 126.132812 800.808594 125.863281 C 800.296875 125.59375 799.769531 125.351562 799.230469 125.136719 C 798.691406 124.917969 798.144531 124.730469 797.585938 124.566406 C 797.027344 124.40625 796.464844 124.269531 795.890625 124.164062 C 795.320312 124.058594 794.746094 123.980469 794.167969 123.929688 C 793.589844 123.882812 793.011719 123.863281 792.429688 123.871094 Z M 19.328125 387.425781 C 18.746094 387.417969 18.167969 387.4375 17.589844 387.488281 C 17.011719 387.539062 16.433594 387.617188 15.863281 387.722656 C 15.292969 387.828125 14.730469 387.960938 14.171875 388.125 C 13.613281 388.285156 13.066406 388.476562 12.527344 388.691406 C 11.988281 388.910156 11.460938 389.152344 10.945312 389.421875 C 10.433594 389.6875 9.929688 389.984375 9.445312 390.300781 C 8.960938 390.621094 8.492188 390.960938 8.039062 391.324219 C 7.585938 391.691406 7.15625 392.078125 6.742188 392.484375 C 6.328125 392.890625 5.9375 393.320312 5.566406 393.765625 C 5.195312 394.210938 4.84375 394.675781 4.519531 395.15625 C 4.195312 395.640625 3.894531 396.136719 3.617188 396.644531 C 3.34375 397.15625 3.09375 397.679688 2.867188 398.214844 C 2.644531 398.75 2.445312 399.296875 2.277344 399.851562 C 2.105469 400.40625 1.964844 400.96875 1.851562 401.539062 C 1.734375 402.109375 1.648438 402.683594 1.59375 403.261719 C 1.535156 403.835938 1.507812 404.417969 1.507812 404.996094 C 1.507812 405.578125 1.535156 406.15625 1.59375 406.734375 C 1.648438 407.3125 1.734375 407.886719 1.851562 408.457031 C 1.964844 409.027344 2.105469 409.589844 2.277344 410.144531 C 2.445312 410.699219 2.644531 411.242188 2.867188 411.78125 C 3.09375 412.316406 3.34375 412.839844 3.617188 413.351562 C 3.894531 413.859375 4.195312 414.355469 4.519531 414.835938 C 4.84375 415.320312 5.195312 415.78125 5.566406 416.230469 C 5.9375 416.675781 6.328125 417.101562 6.742188 417.511719 C 7.15625 417.917969 7.585938 418.304688 8.039062 418.667969 C 8.492188 419.035156 8.960938 419.375 9.445312 419.695312 C 9.929688 420.011719 10.433594 420.304688 10.945312 420.574219 C 11.460938 420.84375 11.988281 421.085938 12.527344 421.304688 C 13.066406 421.519531 13.613281 421.707031 14.171875 421.871094 C 14.730469 422.03125 15.292969 422.167969 15.863281 422.273438 C 16.433594 422.378906 17.011719 422.457031 17.589844 422.507812 C 18.167969 422.554688 18.746094 422.578125 19.328125 422.566406 L 792.429688 422.566406 C 793.011719 422.578125 793.589844 422.554688 794.167969 422.507812 C 794.746094 422.457031 795.320312 422.378906 795.890625 422.273438 C 796.464844 422.167969 797.027344 422.03125 797.585938 421.871094 C 798.144531 421.707031 798.691406 421.519531 799.230469 421.300781 C 799.769531 421.085938 800.296875 420.84375 800.808594 420.574219 C 801.324219 420.304688 801.824219 420.011719 802.3125 419.695312 C 802.796875 419.375 803.265625 419.035156 803.71875 418.667969 C 804.167969 418.304688 804.601562 417.917969 805.015625 417.511719 C 805.429688 417.101562 805.820312 416.675781 806.191406 416.230469 C 806.5625 415.78125 806.910156 415.320312 807.238281 414.835938 C 807.5625 414.355469 807.863281 413.859375 808.136719 413.347656 C 808.414062 412.839844 808.664062 412.316406 808.890625 411.78125 C 809.113281 411.242188 809.308594 410.699219 809.480469 410.144531 C 809.648438 409.589844 809.792969 409.027344 809.90625 408.457031 C 810.019531 407.886719 810.105469 407.3125 810.164062 406.734375 C 810.222656 406.15625 810.25 405.578125 810.25 404.996094 C 810.25 404.417969 810.222656 403.835938 810.164062 403.261719 C 810.105469 402.683594 810.019531 402.109375 809.90625 401.539062 C 809.792969 400.96875 809.648438 400.40625 809.480469 399.851562 C 809.308594 399.296875 809.113281 398.75 808.890625 398.214844 C 808.664062 397.679688 808.414062 397.15625 808.140625 396.644531 C 807.863281 396.136719 807.5625 395.640625 807.238281 395.15625 C 806.910156 394.675781 806.5625 394.210938 806.191406 393.765625 C 805.820312 393.320312 805.429688 392.890625 805.015625 392.484375 C 804.601562 392.078125 804.167969 391.691406 803.71875 391.324219 C 803.265625 390.960938 802.796875 390.621094 802.3125 390.300781 C 801.824219 389.984375 801.324219 389.6875 800.808594 389.421875 C 800.296875 389.152344 799.769531 388.910156 799.230469 388.691406 C 798.691406 388.476562 798.144531 388.285156 797.585938 388.125 C 797.027344 387.960938 796.464844 387.828125 795.890625 387.722656 C 795.320312 387.617188 794.746094 387.539062 794.167969 387.488281 C 793.589844 387.441406 793.011719 387.417969 792.429688 387.425781 Z M 19.328125 650.984375 C 18.746094 650.976562 18.167969 650.996094 17.589844 651.046875 C 17.011719 651.09375 16.433594 651.171875 15.863281 651.28125 C 15.292969 651.386719 14.730469 651.519531 14.171875 651.683594 C 13.613281 651.84375 13.066406 652.035156 12.527344 652.25 C 11.988281 652.46875 11.460938 652.710938 10.945312 652.976562 C 10.433594 653.246094 9.933594 653.539062 9.445312 653.859375 C 8.960938 654.175781 8.492188 654.519531 8.039062 654.882812 C 7.589844 655.25 7.15625 655.636719 6.742188 656.042969 C 6.328125 656.449219 5.9375 656.878906 5.566406 657.324219 C 5.195312 657.769531 4.847656 658.234375 4.519531 658.714844 C 4.195312 659.195312 3.894531 659.691406 3.621094 660.203125 C 3.34375 660.714844 3.09375 661.238281 2.871094 661.773438 C 2.644531 662.308594 2.449219 662.855469 2.277344 663.410156 C 2.109375 663.964844 1.964844 664.527344 1.851562 665.097656 C 1.738281 665.664062 1.652344 666.238281 1.59375 666.816406 C 1.535156 667.394531 1.507812 667.972656 1.507812 668.554688 C 1.507812 669.136719 1.535156 669.714844 1.59375 670.292969 C 1.652344 670.871094 1.738281 671.445312 1.851562 672.011719 C 1.964844 672.582031 2.109375 673.144531 2.277344 673.699219 C 2.449219 674.253906 2.644531 674.800781 2.871094 675.335938 C 3.09375 675.871094 3.34375 676.394531 3.621094 676.90625 C 3.894531 677.417969 4.195312 677.914062 4.519531 678.394531 C 4.847656 678.875 5.195312 679.339844 5.566406 679.785156 C 5.9375 680.234375 6.328125 680.660156 6.742188 681.066406 C 7.15625 681.476562 7.589844 681.863281 8.039062 682.226562 C 8.492188 682.589844 8.960938 682.933594 9.445312 683.25 C 9.933594 683.570312 10.433594 683.863281 10.945312 684.132812 C 11.460938 684.402344 11.988281 684.644531 12.527344 684.859375 C 13.066406 685.078125 13.613281 685.265625 14.171875 685.429688 C 14.730469 685.589844 15.292969 685.722656 15.863281 685.832031 C 16.433594 685.9375 17.011719 686.015625 17.589844 686.0625 C 18.167969 686.113281 18.746094 686.132812 19.328125 686.125 L 792.429688 686.125 C 793.011719 686.132812 793.589844 686.113281 794.167969 686.0625 C 794.746094 686.015625 795.320312 685.9375 795.890625 685.832031 C 796.464844 685.722656 797.027344 685.589844 797.585938 685.429688 C 798.144531 685.265625 798.691406 685.078125 799.230469 684.859375 C 799.769531 684.644531 800.296875 684.402344 800.808594 684.132812 C 801.324219 683.863281 801.824219 683.570312 802.308594 683.25 C 802.796875 682.933594 803.265625 682.589844 803.714844 682.226562 C 804.167969 681.863281 804.601562 681.476562 805.015625 681.066406 C 805.429688 680.660156 805.820312 680.234375 806.191406 679.785156 C 806.5625 679.339844 806.910156 678.875 807.234375 678.394531 C 807.5625 677.914062 807.863281 677.417969 808.136719 676.90625 C 808.414062 676.394531 808.664062 675.871094 808.886719 675.335938 C 809.113281 674.800781 809.308594 674.253906 809.480469 673.699219 C 809.648438 673.144531 809.792969 672.582031 809.90625 672.011719 C 810.019531 671.445312 810.105469 670.871094 810.164062 670.292969 C 810.21875 669.714844 810.25 669.136719 810.25 668.554688 C 810.25 667.972656 810.21875 667.394531 810.164062 666.816406 C 810.105469 666.238281 810.019531 665.664062 809.90625 665.097656 C 809.792969 664.527344 809.648438 663.964844 809.480469 663.410156 C 809.308594 662.855469 809.113281 662.308594 808.886719 661.773438 C 808.664062 661.238281 808.414062 660.714844 808.136719 660.203125 C 807.863281 659.691406 807.5625 659.195312 807.234375 658.714844 C 806.910156 658.234375 806.5625 657.769531 806.191406 657.324219 C 805.820312 656.878906 805.429688 656.449219 805.015625 656.042969 C 804.601562 655.632812 804.167969 655.25 803.714844 654.882812 C 803.265625 654.519531 802.796875 654.175781 802.308594 653.859375 C 801.824219 653.539062 801.324219 653.246094 800.808594 652.976562 C 800.296875 652.710938 799.769531 652.46875 799.230469 652.25 C 798.691406 652.035156 798.144531 651.84375 797.585938 651.683594 C 797.027344 651.519531 796.464844 651.386719 795.890625 651.28125 C 795.320312 651.171875 794.746094 651.09375 794.167969 651.046875 C 793.589844 650.996094 793.011719 650.976562 792.429688 650.984375 Z M 19.328125 650.984375 " fill-opacity="1" fill-rule="nonzero"/></g></svg>